<?xml version="1.0" encoding="utf-8"?>
<!-- Generator: Adobe Illustrator 22.1.0, SVG Export Plug-In . SVG Version: 6.00 Build 0)  -->
<svg version="1.1" id="Шар_1" xmlns="http://www.w3.org/2000/svg" xmlns:xlink="http://www.w3.org/1999/xlink" x="0px" y="0px"
	 viewBox="0 0 8192 3993.6" style="enable-background:new 0 0 8192 3993.6;" xml:space="preserve">
<style type="text/css">
	.st0{display:none;}
	.st1{display:inline;}
	.st2{display:none;fill:#00AE61;}
	.st3{fill:#038946;}
	.st4{fill:none;}
	.st5{fill:#1D662A;}
	.st6{fill:#00AE61;}
	.st7{display:inline;fill:#00AE61;}
	.st8{display:none;fill:url(#SVGID_1_);}
	.st9{fill:url(#SVGID_2_);}
	.st10{display:none;fill:url(#SVGID_3_);}
	.st11{fill:url(#SVGID_4_);}
	.st12{fill:url(#SVGID_5_);}
	.st13{fill:url(#SVGID_6_);}
	.st14{fill:url(#SVGID_7_);}
	.st15{fill:url(#SVGID_8_);}
	.st16{fill:url(#SVGID_9_);}
	.st17{fill:url(#SVGID_10_);}
	.st18{fill:url(#SVGID_11_);}
	.st19{fill:url(#SVGID_12_);}
	.st20{display:none;enable-background:new    ;}
	.st21{font-family:'ATROX-normal';}
	.st22{font-size:131.2005px;}
	.st23{display:none;fill:#FFFFFF;}
	.st24{font-family:'BackInTheUSSRDL';}
	.st25{font-size:116.2773px;}
	.st26{fill:#FFFFFF;}
</style>
<g class="st0">
	<g class="st1">
		<g>
			<path class="st0" d="M3906.9,2734.4c0,9.6-2.1,16.6-6.4,20.9c-4.3,4.3-11.1,6.5-20.6,6.5c-11.1,0-37.9,0-80.7,0v-19.3
				c44.3,0,67.3,0,68.9,0s3-0.1,4.4-0.3c1.3-0.2,2.6-0.5,3.7-1c1.2-0.5,2.1-1.2,2.7-2.2c0.7-1,1-2.3,1-3.9c0-1.8-0.5-3.3-1.4-4.4
				c-1-1.1-2.2-1.9-3.7-2.4c-1.5-0.5-3.1-0.8-4.7-0.9c-1.6-0.1-3.6-0.2-5.9-0.2c-1.5-0.1-5.5-0.3-12.1-0.5
				c-10.4-0.4-17-0.6-19.6-0.8c-2.7-0.1-5.1-0.3-7.5-0.4c-2.4-0.1-4.3-0.3-6-0.4c-8.4-0.5-14.4-3.2-18.1-8.3
				c-2.6-3.8-3.9-9.4-3.9-16.9c0-9.2,1.8-16.2,5.3-20.8c3.6-4.6,9.5-7,17.7-7c11,0,38.9,0,83.7,0v19.3c-44.3,0-67.3,0-68.9,0
				c-1.5,0-2.9,0.1-4.1,0.3s-2.4,0.5-3.4,1c-1.1,0.5-1.9,1.2-2.6,2.2c-0.7,1-1,2.3-1,3.9c0,2.9,1,4.8,3.1,5.7
				c2.1,0.9,4.9,1.4,8.5,1.4h2.4c1.1,0,1.8,0,2.3,0c1.4,0.1,5.3,0.3,11.9,0.5c9.1,0.3,15.4,0.6,18.9,0.7c3.5,0.2,6.5,0.3,8.9,0.4
				c2.4,0.1,4.4,0.3,6,0.4c8.3,0.5,14.2,3.5,17.5,9.1C3905.7,2721.8,3906.9,2727.5,3906.9,2734.4z"/>
			<path d="M3998.7,2761.8h-27.8v-68.6h-39.2v-20.7h105v20.7h-37.9L3998.7,2761.8L3998.7,2761.8z"/>
			<path class="st2" d="M3931.7,2672.5v20.7h39.2l0,0h27.8l0,0h37.9v-20.7H3931.7z"/>
			<path class="st3" d="M4164.9,2741v20.8h-68.5h-27.5h-1.9v-89.3h1.2h28.3h68.5v20.7h-70.1v15h65.8v18.1h-65.8v14.8L4164.9,2741
				L4164.9,2741z"/>
			<path class="st3" d="M4231.9,2761.8h-37.5l43.3-44.1l-41.7-45.2h36.2l24.6,27.6l24.5-27.6h36.6l-42.2,45.2l44.1,44.1h-37.4
				l-25.3-26.8L4231.9,2761.8z"/>
		</g>
	</g>
	<g class="st1">
		<path d="M3824.7,2695.3c-0.7,1-1,2.3-1,3.9c0,2.9,1,4.8,3.1,5.7c1.5,0.7,3.4,1.1,5.7,1.3v1.4h42.5c0.1,0,0.2,0,0.2,0l0,0
			c1.7,0.1,3.2,0.2,4.5,0.2c2.4,0.1,4.4,0.3,6,0.4c5.9,0.3,10.6,2,14,4.9c-1.3,1.4-1.7,3.3-0.2,5.2c0.6,0.8,1.1,1.4,1.5,2
			c-1.7,5.4-0.7,12.6-2,16.9c-0.6,2.1,0.1,3.7,1.4,4.8c-1.6,4.3-2.7,8.3-1.1,13.1c0.1,0.4,0.3,0.7,0.5,1c-4.3,3.8-10.9,5.8-19.8,5.8
			h-80.7v-19.3h68.9c0.5,0,1,0,1.4,0c0.4,0,0.8-0.1,1.2-0.1c0.7-0.1,1.3-0.1,1.8-0.2c1-0.1,1.9-0.3,2.8-0.7c0.3-0.1,0.6-0.2,0.9-0.4
			c1.2-0.5,2.1-1.2,2.7-2.2c0.7-1,1-2.3,1-3.9c0-1.8-0.5-3.3-1.4-4.4c-0.9-1-1.9-1.7-3.2-2.2c-0.2-0.1-0.3-0.1-0.5-0.2
			c-1.3-0.5-2.7-0.7-4.1-0.9v-1.7h-44.4c-0.3,0-0.5,0-0.7-0.1c-0.2,0-0.5,0-0.7-0.1c-2.4-0.1-4.3-0.3-6-0.4
			c-7.6-0.4-13.2-2.7-16.9-6.9c0.2-0.2,0.3-0.4,0.4-0.6c1.1-2.1,1.8-4.4,2.1-6.7c0.5-3.3-1.9-6.8-1.4-9.7c0.6-2.8,2.8-4.1,2.5-7.5
			c-0.4-3.7-3.2-6.3-3.8-9.9c-0.2-0.9-0.5-1.6-1-2.2c0.5-0.9,1-1.8,1.6-2.6c3.6-4.6,9.5-7,17.7-7h83.7v18.4h-71.2v0.9
			c-0.7,0.1-1.3,0.1-1.9,0.2c-1.2,0.2-2.4,0.5-3.4,1C3826.2,2693.5,3825.4,2694.3,3824.7,2695.3z"/>
		<path d="M3825.4,2672.5v20.9c-3.6,0.2-4.9,3.7-4.1,6.4c-1.3,2.8-0.1,6.9,3.8,7.1c0.1,0,0.2,0,0.3,0v18.9h-26.2v-53.4
			L3825.4,2672.5L3825.4,2672.5z"/>
		<rect x="3817.1" y="2691.5" width="15.5" height="15.5"/>
		<rect x="3875.3" y="2707.5" width="27.5" height="54.4"/>
		<path d="M3870.6,2727.1h4.6h5.8v16.1h-5.8h-4.6h-1.2v-0.7c0.4,0,0.8-0.1,1.2-0.1v-14.8V2727.1z"/>
		<line class="st4" x1="3870.6" y1="2727.6" x2="3870.6" y2="2727.1"/>
		<path d="M3869.5,2742.5c0.4,0,0.8-0.1,1.2-0.1v1.5h-71.4v-1.5h68.9C3868.6,2742.5,3869,2742.5,3869.5,2742.5z"/>
		<rect x="3860.8" y="2702.2" class="st4" width="71.4" height="16.5"/>
		<rect x="3832.5" y="2689.1" width="71.1" height="4.1"/>
	</g>
</g>
<g class="st0">
	<g class="st1">
		<g>
			<path class="st0" d="M3903.4,2942.7c0,9.6-2.1,16.6-6.4,20.9c-4.3,4.3-11.1,6.5-20.6,6.5c-11.1,0-37.9,0-80.7,0v-19.3
				c44.3,0,67.3,0,68.9,0s3-0.1,4.4-0.3c1.3-0.2,2.6-0.5,3.7-1c1.2-0.5,2.1-1.2,2.7-2.2c0.7-1,1-2.3,1-3.9c0-1.8-0.5-3.3-1.4-4.4
				s-2.2-1.9-3.7-2.4c-1.5-0.5-3.1-0.8-4.7-0.9c-1.6-0.1-3.6-0.2-5.9-0.2c-1.5-0.1-5.5-0.3-12.1-0.5c-10.4-0.4-17-0.6-19.6-0.8
				c-2.7-0.1-5.1-0.3-7.5-0.4c-2.4-0.1-4.3-0.3-6-0.4c-8.4-0.5-14.4-3.2-18.1-8.3c-2.6-3.8-3.9-9.4-3.9-16.9
				c0-9.2,1.8-16.2,5.3-20.8s9.5-7,17.7-7c11,0,38.9,0,83.7,0v19.3c-44.3,0-67.3,0-68.9,0c-1.5,0-2.9,0.1-4.1,0.3s-2.4,0.5-3.4,1
				c-1.1,0.5-1.9,1.2-2.6,2.2c-0.7,1-1,2.3-1,3.9c0,2.9,1,4.8,3.1,5.7s4.9,1.4,8.5,1.4h2.4c1.1,0,1.8,0,2.3,0
				c1.4,0.1,5.3,0.3,11.9,0.5c9.1,0.3,15.4,0.6,18.9,0.7c3.5,0.2,6.5,0.3,8.9,0.4c2.4,0.1,4.4,0.3,6,0.4c8.3,0.5,14.2,3.5,17.5,9.1
				C3902.2,2930,3903.4,2935.8,3903.4,2942.7z"/>
			<path d="M3995.2,2970.1h-27.8v-127.9h-39.2v-38.5h105v38.5h-37.9L3995.2,2970.1L3995.2,2970.1z"/>
			<path class="st2" d="M3928.2,2880.8v20.7h39.2l0,0h27.8l0,0h37.9v-20.7H3928.2z"/>
			<path d="M4161.4,2931.4v38.7h-68.5h-27.5h-1.9v-166.4h1.2h28.3h68.5v38.5h-70.1v28h65.8v33.7h-65.8v27.5H4161.4z"/>
			<path d="M4228.4,2970.1h-37.5l43.3-82.1l-41.7-84.2h36.2l24.6,51.4l24.5-51.4h36.6l-42.2,84.2l44.1,82.1H4279l-25.3-50
				L4228.4,2970.1z"/>
		</g>
	</g>
	<g class="st1">
		<path class="st5" d="M3821.2,2846c-0.7,1.8-1,4.2-1,7.2c0,5.3,1,8.9,3.1,10.6c1.5,1.3,3.4,2,5.7,2.4v2.7h42.5c0.1,0,0.2,0,0.2,0
			l0,0c1.7,0.2,3.2,0.3,4.5,0.4c2.4,0.2,4.4,0.5,6,0.8c5.9,0.6,10.6,3.6,14,9.1c-1.3,2.5-1.7,6.1-0.2,9.8c0.6,1.4,1.1,2.6,1.5,3.8
			c-1.7,10-0.7,23.5-2,31.5c-0.6,3.8,0.1,7,1.4,8.9c-1.6,8-2.7,15.5-1.1,24.5c0.1,0.7,0.3,1.3,0.5,1.8c-4.3,7.2-10.9,10.7-19.8,10.7
			h-80.7v-36h68.9c0.5,0,1,0,1.4-0.1c0.4,0,0.8-0.1,1.2-0.1c0.7-0.1,1.3-0.2,1.8-0.3c1-0.2,1.9-0.6,2.8-1.2c0.3-0.2,0.6-0.4,0.9-0.6
			c1.2-0.9,2.1-2.3,2.7-4.1c0.7-1.8,1-4.2,1-7.2c0-3.4-0.5-6.1-1.4-8.2c-0.9-1.8-1.9-3.2-3.2-4.1c-0.2-0.1-0.3-0.2-0.5-0.3
			c-1.3-0.8-2.7-1.4-4.1-1.6v-3.2h-44.4c-0.3,0-0.5-0.1-0.7-0.1c-0.2,0-0.5-0.1-0.7-0.1c-2.4-0.2-4.3-0.5-6-0.8
			c-7.6-0.8-13.2-5-16.9-12.8c0.2-0.4,0.3-0.7,0.4-1.1c1.1-3.9,1.8-8.2,2.1-12.5c0.5-6.2-1.9-12.5-1.4-18.1
			c0.6-5.2,2.8-7.7,2.5-13.9c-0.4-6.9-3.2-11.8-3.8-18.4c-0.2-1.7-0.5-3.1-1-4c0.5-1.7,1-3.3,1.6-4.8c3.6-8.6,9.5-12.9,17.7-12.9
			h83.7v34.4H3829v1.7c-0.7,0.1-1.3,0.2-1.9,0.3c-1.2,0.3-2.4,0.9-3.4,1.8C3822.7,2842.8,3821.9,2844.2,3821.2,2846z"/>
		<path class="st5" d="M3821.9,2803.7v38.9c-3.6,0.4-4.9,7-4.1,12c-1.3,5.2-0.1,12.8,3.8,13.2c0.1,0,0.2,0.1,0.3,0.1v35.3h-26.2
			v-99.5H3821.9z"/>
		<rect x="3813.5" y="2839" class="st5" width="15.5" height="28.8"/>
		<rect x="3871.7" y="2868.8" class="st5" width="27.5" height="101.3"/>
		<path class="st5" d="M3867.1,2905.4h4.6h5.8v29.9h-5.8h-4.6h-1.2v-1.3c0.4,0,0.8-0.1,1.2-0.1v-27.6V2905.4z"/>
		<path class="st5" d="M3865.9,2934c0.4,0,0.8-0.1,1.2-0.1v2.9h-71.4v-2.7h68.9C3865,2934.1,3865.5,2934.1,3865.9,2934z"/>
		<rect x="3829" y="2834.6" class="st5" width="71.1" height="7.7"/>
	</g>
</g>
<g class="st0">
	<g class="st1">
		<g>
			<path class="st0" d="M3900.2,3382.2c0,9.6-2.1,16.6-6.4,20.9s-11.1,6.5-20.6,6.5c-11.1,0-37.9,0-80.7,0v-19.3
				c44.3,0,67.3,0,68.9,0s3-0.1,4.4-0.3c1.3-0.2,2.6-0.5,3.7-1c1.2-0.5,2.1-1.2,2.7-2.2c0.7-1,1-2.3,1-3.9c0-1.8-0.5-3.3-1.4-4.4
				c-1-1.1-2.2-1.9-3.7-2.4c-1.5-0.5-3.1-0.8-4.7-0.9c-1.6-0.1-3.6-0.2-5.9-0.2c-1.5-0.1-5.5-0.3-12.1-0.5
				c-10.4-0.4-17-0.6-19.6-0.8c-2.7-0.1-5.1-0.3-7.5-0.4c-2.4-0.1-4.3-0.3-6-0.4c-8.4-0.5-14.4-3.2-18.1-8.3
				c-2.6-3.8-3.9-9.4-3.9-16.9c0-9.2,1.8-16.2,5.3-20.8c3.6-4.6,9.5-7,17.7-7c11,0,38.9,0,83.7,0v19.3c-44.3,0-67.3,0-68.9,0
				c-1.5,0-2.9,0.1-4.1,0.3c-1.2,0.2-2.4,0.5-3.4,1c-1.1,0.5-1.9,1.2-2.6,2.2c-0.7,1-1,2.3-1,3.9c0,2.9,1,4.8,3.1,5.7
				c2.1,0.9,4.9,1.4,8.5,1.4h2.4c1.1,0,1.8,0,2.3,0c1.4,0.1,5.3,0.3,11.9,0.5c9.1,0.3,15.4,0.6,18.9,0.7c3.5,0.2,6.5,0.3,8.9,0.4
				c2.4,0.1,4.4,0.3,6,0.4c8.3,0.5,14.2,3.5,17.5,9.1C3899,3369.5,3900.2,3375.3,3900.2,3382.2z"/>
			<path d="M3992,3409.5h-27.8v-68.6H3925v-20.7h105v20.7h-37.9L3992,3409.5L3992,3409.5z"/>
			<path class="st2" d="M3925,3320.2v20.7h39.2l0,0h27.8l0,0h37.9v-20.7H3925z"/>
			<path d="M4158.2,3388.7v20.8h-68.5h-27.5h-1.9v-89.3h1.2h28.3h68.5v20.7h-70.1v15h65.7v18.1h-65.8v14.8L4158.2,3388.7
				L4158.2,3388.7z"/>
			<path class="st6" d="M4225.3,3409.5h-37.5l43.3-44.1l-41.7-45.2h36.2l24.6,27.6l24.5-27.6h36.6l-42.2,45.2l44.1,44.1h-37.4
				l-25.3-26.8L4225.3,3409.5z"/>
		</g>
	</g>
	<g class="st1">
		<path d="M3818.1,3342.9c-0.7,1-1,2.3-1,3.9c0,2.9,1,4.8,3.1,5.7c1.5,0.7,3.4,1.1,5.7,1.3v1.4h42.5c0.1,0,0.2,0,0.2,0l0,0
			c1.7,0.1,3.2,0.2,4.5,0.2c2.4,0.1,4.4,0.3,6,0.4c5.9,0.3,10.6,2,14,4.9c-1.3,1.3-1.7,3.3-0.2,5.2c0.6,0.8,1.1,1.4,1.5,2
			c-1.7,5.4-0.7,12.6-2,16.9c-0.6,2.1,0.1,3.7,1.4,4.8c-1.6,4.3-2.7,8.3-1.1,13.1c0.1,0.4,0.3,0.7,0.5,1c-4.3,3.8-10.9,5.8-19.8,5.8
			h-80.7v-19.3h68.9c0.5,0,1,0,1.4,0c0.4,0,0.8-0.1,1.2-0.1c0.7-0.1,1.3-0.1,1.8-0.2c1-0.1,1.9-0.3,2.8-0.7c0.3-0.1,0.6-0.2,0.9-0.4
			c1.2-0.5,2.1-1.2,2.7-2.2c0.7-1,1-2.3,1-3.9c0-1.8-0.5-3.3-1.4-4.4c-0.9-1-1.9-1.7-3.2-2.2c-0.2-0.1-0.3-0.1-0.5-0.2
			c-1.3-0.5-2.7-0.7-4.1-0.9v-1.7h-44.4c-0.3,0-0.5,0-0.7-0.1c-0.2,0-0.5,0-0.7-0.1c-2.4-0.1-4.3-0.3-6-0.4
			c-7.6-0.4-13.2-2.7-16.9-6.9c0.2-0.2,0.3-0.4,0.4-0.6c1.1-2.1,1.8-4.4,2.1-6.7c0.5-3.3-1.9-6.8-1.4-9.7c0.6-2.8,2.8-4.1,2.5-7.5
			c-0.4-3.7-3.2-6.3-3.8-9.9c-0.2-0.9-0.5-1.6-1-2.2c0.5-0.9,1-1.8,1.6-2.6c3.6-4.6,9.5-7,17.7-7h83.7v18.4H3826v0.9
			c-0.7,0.1-1.3,0.1-1.9,0.2c-1.2,0.2-2.4,0.5-3.4,1C3819.5,3341.2,3818.7,3342,3818.1,3342.9z"/>
		<path d="M3818.8,3320.3v20.9c-3.6,0.2-4.9,3.7-4.1,6.4c-1.3,2.8-0.1,6.9,3.8,7.1c0.1,0,0.2,0,0.3,0v18.9h-26.2v-53.4
			L3818.8,3320.3L3818.8,3320.3z"/>
		<rect x="3810.4" y="3339.2" width="15.5" height="15.5"/>
		<rect x="3868.6" y="3355.2" width="27.5" height="54.4"/>
		<path d="M3863.9,3374.8h4.6h5.8v16.1h-5.8h-4.6h-1.2v-0.7c0.4,0,0.8-0.1,1.2-0.1v-14.8V3374.8z"/>
		<path d="M3862.8,3390.2c0.4,0,0.8-0.1,1.2-0.1v1.5h-71.4v-1.5h68.9C3861.9,3390.2,3862.4,3390.2,3862.8,3390.2z"/>
		<rect x="3825.9" y="3336.8" width="71.1" height="4.1"/>
	</g>
</g>
<g class="st0">
	<g class="st1">
		<g>
			<path class="st0" d="M3895.2,3594.7c0,9.6-2.1,16.6-6.4,20.9c-4.3,4.3-11.1,6.5-20.6,6.5c-11.1,0-37.9,0-80.7,0v-19.3
				c44.3,0,67.3,0,68.9,0s3-0.1,4.4-0.3c1.3-0.2,2.6-0.5,3.7-1c1.2-0.5,2.1-1.2,2.7-2.2c0.7-1,1-2.3,1-3.9c0-1.8-0.5-3.3-1.4-4.4
				c-1-1.1-2.2-1.9-3.7-2.4c-1.5-0.5-3.1-0.8-4.7-0.9c-1.6-0.1-3.6-0.2-5.9-0.2c-1.5-0.1-5.5-0.3-12.1-0.5
				c-10.4-0.4-17-0.6-19.6-0.8c-2.7-0.1-5.1-0.3-7.5-0.4c-2.4-0.1-4.3-0.3-6-0.4c-8.4-0.5-14.4-3.2-18.1-8.3
				c-2.6-3.8-3.9-9.4-3.9-16.9c0-9.2,1.8-16.2,5.3-20.8c3.6-4.6,9.5-7,17.7-7c11,0,38.9,0,83.7,0v19.3c-44.3,0-67.3,0-68.9,0
				c-1.5,0-2.9,0.1-4.1,0.3c-1.2,0.2-2.4,0.5-3.4,1c-1.1,0.5-1.9,1.2-2.6,2.2c-0.7,1-1,2.3-1,3.9c0,2.9,1,4.8,3.1,5.7
				c2.1,0.9,4.9,1.4,8.5,1.4h2.4c1.1,0,1.8,0,2.3,0c1.4,0.1,5.3,0.3,11.9,0.5c9.1,0.3,15.4,0.6,18.9,0.7c3.5,0.2,6.5,0.3,8.9,0.4
				c2.4,0.1,4.4,0.3,6,0.4c8.3,0.5,14.2,3.5,17.5,9.1C3893.9,3582.1,3895.2,3587.8,3895.2,3594.7z"/>
			<path class="st6" d="M3986.9,3622.1h-27.8v-68.6h-39.2v-20.7h105v20.7H3987L3986.9,3622.1L3986.9,3622.1z"/>
			<path class="st2" d="M3919.9,3532.8v20.7h39.2l0,0h27.8l0,0h37.9v-20.7H3919.9z"/>
			<path d="M4153.2,3601.3v20.8h-68.5h-27.5h-1.9v-89.3h1.2h28.3h68.5v20.7h-70.1v15h65.8v18.1h-65.8v14.8L4153.2,3601.3
				L4153.2,3601.3z"/>
			<path d="M4220.2,3622.1h-37.5l43.3-44.1l-41.7-45.2h36.2l24.6,27.6l24.5-27.6h36.6l-42.2,45.2l44.1,44.1h-37.4l-25.3-26.8
				L4220.2,3622.1z"/>
		</g>
	</g>
	<g class="st1">
		<path class="st6" d="M3813,3555.5c-0.7,1-1,2.3-1,3.9c0,2.9,1,4.8,3.1,5.7c1.5,0.7,3.4,1.1,5.7,1.3v1.4h42.5c0.1,0,0.2,0,0.2,0
			l0,0c1.7,0.1,3.2,0.2,4.5,0.2c2.4,0.1,4.4,0.3,6,0.4c5.9,0.3,10.6,2,14,4.9c-1.3,1.3-1.7,3.3-0.2,5.2c0.6,0.8,1.1,1.4,1.5,2
			c-1.7,5.4-0.7,12.6-2,16.9c-0.6,2.1,0.1,3.7,1.4,4.8c-1.6,4.3-2.7,8.3-1.1,13.1c0.1,0.4,0.3,0.7,0.5,1c-4.3,3.8-10.9,5.8-19.8,5.8
			h-80.7v-19.3h68.9c0.5,0,1,0,1.4,0c0.4,0,0.8-0.1,1.2-0.1c0.7-0.1,1.3-0.1,1.8-0.2c1-0.1,1.9-0.3,2.8-0.7c0.3-0.1,0.6-0.2,0.9-0.4
			c1.2-0.5,2.1-1.2,2.7-2.2c0.7-1,1-2.3,1-3.9c0-1.8-0.5-3.3-1.4-4.4c-0.9-1-1.9-1.7-3.2-2.2c-0.2-0.1-0.3-0.1-0.5-0.2
			c-1.3-0.5-2.7-0.7-4.1-0.9v-1.7h-44.4c-0.3,0-0.5,0-0.7-0.1c-0.2,0-0.5,0-0.7-0.1c-2.4-0.1-4.3-0.3-6-0.4
			c-7.6-0.4-13.2-2.7-16.9-6.9c0.2-0.2,0.3-0.4,0.4-0.6c1.1-2.1,1.8-4.4,2.1-6.7c0.5-3.3-1.9-6.8-1.4-9.7c0.6-2.8,2.8-4.1,2.5-7.5
			c-0.4-3.7-3.2-6.3-3.8-9.9c-0.2-0.9-0.5-1.6-1-2.2c0.5-0.9,1-1.8,1.6-2.6c3.6-4.6,9.5-7,17.7-7h83.7v18.4h-71.1v0.9
			c-0.7,0.1-1.3,0.1-1.9,0.2c-1.2,0.2-2.4,0.5-3.4,1C3814.5,3553.8,3813.6,3554.5,3813,3555.5z"/>
		<path class="st6" d="M3813.7,3532.8v20.9c-3.6,0.2-4.9,3.7-4.1,6.4c-1.3,2.8-0.1,6.9,3.8,7.1c0.1,0,0.2,0,0.3,0v18.9h-26.2v-53.4
			L3813.7,3532.8L3813.7,3532.8z"/>
		<rect x="3805.3" y="3551.8" class="st6" width="15.5" height="15.5"/>
		<rect x="3863.5" y="3567.7" class="st6" width="27.5" height="54.4"/>
		<path class="st6" d="M3858.9,3587.4h4.6h5.8v16.1h-5.8h-4.6h-1.2v-0.7c0.4,0,0.8-0.1,1.2-0.1v-14.8V3587.4z"/>
		<path class="st6" d="M3857.7,3602.8c0.4,0,0.8-0.1,1.2-0.1v1.5h-71.4v-1.5h68.9C3856.8,3602.8,3857.3,3602.8,3857.7,3602.8z"/>
		<rect x="3820.8" y="3549.4" class="st6" width="71.1" height="4.1"/>
	</g>
</g>
<g class="st0">
	<g class="st1">
		<g>
			<path class="st0" d="M3899.2,3808.3c0,9.6-2.1,16.6-6.4,20.9c-4.3,4.3-11.1,6.5-20.6,6.5c-11.1,0-37.9,0-80.7,0v-19.3
				c44.3,0,67.3,0,68.9,0s3-0.1,4.4-0.3c1.3-0.2,2.6-0.5,3.7-1c1.2-0.5,2.1-1.2,2.7-2.2c0.7-1,1-2.3,1-3.9c0-1.8-0.5-3.3-1.4-4.4
				s-2.2-1.9-3.7-2.4c-1.5-0.5-3.1-0.8-4.7-0.9c-1.6-0.1-3.6-0.2-5.9-0.2c-1.5-0.1-5.5-0.3-12.1-0.5c-10.4-0.4-17-0.6-19.6-0.8
				c-2.7-0.1-5.1-0.3-7.5-0.4c-2.4-0.1-4.3-0.3-6-0.4c-8.4-0.5-14.4-3.2-18.1-8.3c-2.6-3.8-3.9-9.4-3.9-16.9
				c0-9.2,1.8-16.2,5.3-20.8c3.6-4.6,9.5-7,17.7-7c11,0,38.9,0,83.7,0v19.3c-44.3,0-67.3,0-68.9,0c-1.5,0-2.9,0.1-4.1,0.3
				c-1.2,0.2-2.4,0.5-3.4,1c-1.1,0.5-1.9,1.2-2.6,2.2c-0.7,1-1,2.3-1,3.9c0,2.9,1,4.8,3.1,5.7s4.9,1.4,8.5,1.4h2.4
				c1.1,0,1.8,0,2.3,0c1.4,0.1,5.3,0.3,11.9,0.5c9.1,0.3,15.4,0.6,18.9,0.7c3.5,0.2,6.5,0.3,8.9,0.4c2.4,0.1,4.4,0.3,6,0.4
				c8.3,0.5,14.2,3.5,17.5,9.1C3898,3795.6,3899.2,3801.4,3899.2,3808.3z"/>
			<path d="M3991,3835.7h-27.8v-68.6H3924v-20.7h105v20.7H3991L3991,3835.7L3991,3835.7z"/>
			<path class="st2" d="M3924,3746.4v20.7h39.2l0,0h27.8l0,0h37.9v-20.7H3924z"/>
			<path d="M4157.2,3814.9v20.8h-68.5h-27.5h-1.9v-89.3h1.2h28.3h68.5v20.7h-70.1v15h65.8v18.1h-65.8v14.8L4157.2,3814.9
				L4157.2,3814.9z"/>
			<path d="M4224.2,3835.7h-37.5l43.3-44.1l-41.7-45.2h36.2l24.6,27.6l24.5-27.6h36.6l-42.2,45.2l44.1,44.1h-37.4l-25.3-26.8
				L4224.2,3835.7z"/>
		</g>
	</g>
	<g class="st1">
		<path d="M3817,3769.1c-0.7,1-1,2.3-1,3.9c0,2.9,1,4.8,3.1,5.7c1.5,0.7,3.4,1.1,5.7,1.3v1.4h42.5c0.1,0,0.2,0,0.2,0l0,0
			c1.7,0.1,3.2,0.2,4.5,0.2c2.4,0.1,4.4,0.3,6,0.4c5.9,0.3,10.6,2,14,4.9c-1.3,1.3-1.7,3.3-0.2,5.2c0.6,0.8,1.1,1.4,1.5,2
			c-1.7,5.4-0.7,12.6-2,16.9c-0.6,2.1,0.1,3.7,1.4,4.8c-1.6,4.3-2.7,8.3-1.1,13.1c0.1,0.4,0.3,0.7,0.5,1c-4.3,3.8-10.9,5.8-19.8,5.8
			h-80.7v-19.3h68.9c0.5,0,1,0,1.4,0c0.4,0,0.8-0.1,1.2-0.1c0.7-0.1,1.3-0.1,1.8-0.2c1-0.1,1.9-0.3,2.8-0.7c0.3-0.1,0.6-0.2,0.9-0.4
			c1.2-0.5,2.1-1.2,2.7-2.2c0.7-1,1-2.3,1-3.9c0-1.8-0.5-3.3-1.4-4.4c-0.9-1-1.9-1.7-3.2-2.2c-0.2-0.1-0.3-0.1-0.5-0.2
			c-1.3-0.5-2.7-0.7-4.1-0.9v-1.7h-44.4c-0.3,0-0.5,0-0.7-0.1c-0.2,0-0.5,0-0.7-0.1c-2.4-0.1-4.3-0.3-6-0.4
			c-7.6-0.4-13.2-2.7-16.9-6.9c0.2-0.2,0.3-0.4,0.4-0.6c1.1-2.1,1.8-4.4,2.1-6.7c0.5-3.3-1.9-6.8-1.4-9.7c0.6-2.8,2.8-4.1,2.5-7.5
			c-0.4-3.7-3.2-6.3-3.8-9.9c-0.2-0.9-0.5-1.6-1-2.2c0.5-0.9,1-1.8,1.6-2.6c3.6-4.6,9.5-7,17.7-7h83.7v18.4h-71.1v0.9
			c-0.7,0.1-1.3,0.1-1.9,0.2c-1.2,0.2-2.4,0.5-3.4,1C3818.5,3767.4,3817.7,3768.1,3817,3769.1z"/>
		<path d="M3817.7,3746.4v20.9c-3.6,0.2-4.9,3.7-4.1,6.4c-1.3,2.8-0.1,6.9,3.8,7.1c0.1,0,0.2,0,0.3,0v18.9h-26.2v-53.4
			L3817.7,3746.4L3817.7,3746.4z"/>
		<rect x="3809.4" y="3765.4" width="15.5" height="15.5"/>
		<rect x="3867.5" y="3781.3" width="27.5" height="54.4"/>
		<path d="M3862.9,3801h4.6h5.8v16.1h-5.8h-4.6h-1.2v-0.7c0.4,0,0.8-0.1,1.2-0.1v-14.8V3801z"/>
		<path d="M3861.8,3816.3c0.4,0,0.8-0.1,1.2-0.1v1.5h-71.4v-1.5h68.9C3860.8,3816.4,3861.3,3816.3,3861.8,3816.3z"/>
		<rect x="3824.8" y="3763" width="71.1" height="4.1"/>
	</g>
	<path class="st7" d="M4087.1,3782.1v18.2h65.8v-18.2H4087.1z"/>
	<polygon class="st7" points="4267.4,3790 4249.5,3808.9 4249.5,3808.9 4224.2,3835.7 4186.7,3835.7 4230,3791.6 4188.3,3746.4 
		4224.6,3746.4 	"/>
</g>
<g class="st0">
	<g class="st1">
		<g>
			<path class="st2" d="M3895.7,4049.1c0,9.6-2.1,16.6-6.4,20.9c-4.3,4.3-11.1,6.5-20.6,6.5c-11.1,0-37.9,0-80.7,0v-19.3
				c44.3,0,67.3,0,68.9,0s3-0.1,4.4-0.3c1.3-0.2,2.6-0.5,3.7-1c1.2-0.5,2.1-1.2,2.7-2.2c0.7-1,1-2.3,1-3.9c0-1.8-0.5-3.3-1.4-4.4
				s-2.2-1.9-3.7-2.4c-1.5-0.5-3.1-0.8-4.7-0.9c-1.6-0.1-3.6-0.2-5.9-0.2c-1.5-0.1-5.5-0.3-12.1-0.5c-10.4-0.4-17-0.6-19.6-0.8
				c-2.7-0.1-5.1-0.3-7.5-0.4s-4.3-0.3-6-0.4c-8.4-0.5-14.4-3.2-18.1-8.3c-2.6-3.8-3.9-9.4-3.9-16.9c0-9.2,1.8-16.2,5.3-20.8
				s9.5-7,17.7-7c11,0,38.9,0,83.7,0v19.3c-44.3,0-67.3,0-68.9,0c-1.5,0-2.9,0.1-4.1,0.3c-1.2,0.2-2.4,0.5-3.4,1
				c-1.1,0.5-1.9,1.2-2.6,2.2c-0.7,1-1,2.3-1,3.9c0,2.9,1,4.8,3.1,5.7s4.9,1.4,8.5,1.4h2.4c1.1,0,1.8,0,2.3,0
				c1.4,0.1,5.3,0.3,11.9,0.5c9.1,0.3,15.4,0.6,18.9,0.7c3.5,0.2,6.5,0.3,8.9,0.4c2.4,0.1,4.4,0.3,6,0.4c8.3,0.5,14.2,3.5,17.5,9.1
				C3894.4,4036.4,3895.7,4042.2,3895.7,4049.1z"/>
			<path class="st6" d="M3987.4,4076.5h-27.8v-68.6h-39.2v-20.7h105v20.7h-37.9L3987.4,4076.5L3987.4,4076.5z"/>
			<path class="st2" d="M3920.4,3987.2v20.7h39.2l0,0h27.8l0,0h37.9v-20.7H3920.4z"/>
			<path class="st6" d="M4153.7,4055.7v20.8h-68.5h-27.5h-1.9v-89.3h1.2h28.3h68.5v20.7h-70.1v15h65.8v18.1h-65.8v14.8
				L4153.7,4055.7L4153.7,4055.7z"/>
			<path class="st6" d="M4220.7,4076.5h-37.5l43.3-44.1l-41.7-45.2h36.2l24.6,27.6l24.5-27.6h36.6l-42.2,45.2l44.1,44.1h-37.4
				l-25.3-26.8L4220.7,4076.5z"/>
		</g>
	</g>
	<g class="st1">
		<path class="st6" d="M3813.5,4009.9c-0.7,1-1,2.3-1,3.9c0,2.9,1,4.8,3.1,5.7c1.5,0.7,3.4,1.1,5.7,1.3v1.4h42.5c0.1,0,0.2,0,0.2,0
			l0,0c1.7,0.1,3.2,0.2,4.5,0.2c2.4,0.1,4.4,0.3,6,0.4c5.9,0.3,10.6,2,14,4.9c-1.3,1.3-1.7,3.3-0.2,5.2c0.6,0.8,1.1,1.4,1.5,2
			c-1.7,5.4-0.7,12.6-2,16.9c-0.6,2.1,0.1,3.7,1.4,4.8c-1.6,4.3-2.7,8.3-1.1,13.1c0.1,0.4,0.3,0.7,0.5,1c-4.3,3.8-10.9,5.8-19.8,5.8
			h-80.7v-19.3h68.9c0.5,0,1,0,1.4,0c0.4,0,0.8-0.1,1.2-0.1c0.7-0.1,1.3-0.1,1.8-0.2c1-0.1,1.9-0.3,2.8-0.7c0.3-0.1,0.6-0.2,0.9-0.4
			c1.2-0.5,2.1-1.2,2.7-2.2c0.7-1,1-2.3,1-3.9c0-1.8-0.5-3.3-1.4-4.4c-0.9-1-1.9-1.7-3.2-2.2c-0.2-0.1-0.3-0.1-0.5-0.2
			c-1.3-0.5-2.7-0.7-4.1-0.9v-1.7H3815c-0.3,0-0.5,0-0.7-0.1c-0.2,0-0.5,0-0.7-0.1c-2.4-0.1-4.3-0.3-6-0.4
			c-7.6-0.4-13.2-2.7-16.9-6.9c0.2-0.2,0.3-0.4,0.4-0.6c1.1-2.1,1.8-4.4,2.1-6.7c0.5-3.3-1.9-6.8-1.4-9.7c0.6-2.8,2.8-4.1,2.5-7.5
			c-0.4-3.7-3.2-6.3-3.8-9.9c-0.2-0.9-0.5-1.6-1-2.2c0.5-0.9,1-1.8,1.6-2.6c3.6-4.6,9.5-7,17.7-7h83.7v18.4h-71.1v0.9
			c-0.7,0.1-1.3,0.1-1.9,0.2c-1.2,0.2-2.4,0.5-3.4,1C3815,4008.2,3814.2,4008.9,3813.5,4009.9z"/>
		<path class="st6" d="M3814.2,3987.2v20.9c-3.6,0.2-4.9,3.7-4.1,6.4c-1.3,2.8-0.1,6.9,3.8,7.1c0.1,0,0.2,0,0.3,0v18.9H3788v-53.4
			L3814.2,3987.2L3814.2,3987.2z"/>
		<rect x="3805.8" y="4006.2" class="st6" width="15.5" height="15.5"/>
		<rect x="3864" y="4022.1" class="st6" width="27.5" height="54.4"/>
		<path class="st6" d="M3859.4,4041.8h4.6h5.8v16.1h-5.8h-4.6h-1.2v-0.7c0.4,0,0.8-0.1,1.2-0.1v-14.8V4041.8z"/>
		<path class="st6" d="M3858.2,4057.1c0.4,0,0.8-0.1,1.2-0.1v1.5H3788v-1.5h68.9C3857.3,4057.2,3857.8,4057.1,3858.2,4057.1z"/>
		<rect x="3821.3" y="4003.7" class="st6" width="71.1" height="4.1"/>
	</g>
</g>
<g class="st0">
	<g class="st1">
		<g>
			
				<linearGradient id="SVGID_1_" gradientUnits="userSpaceOnUse" x1="4151.6289" y1="-981.6219" x2="4370.1284" y2="-981.6219" gradientTransform="matrix(0.5038 0 0 -0.5038 1693.6975 3803.3413)">
				<stop  offset="0" style="stop-color:#000000"/>
				<stop  offset="1" style="stop-color:#000000"/>
			</linearGradient>
			<path class="st8" d="M3895.2,4315.1c0,9.6-2.1,16.6-6.4,20.9c-4.3,4.3-11.1,6.5-20.6,6.5c-11.1,0-37.9,0-80.7,0v-19.3
				c44.3,0,67.3,0,68.9,0s3-0.1,4.4-0.3c1.3-0.2,2.6-0.5,3.7-1c1.2-0.5,2.1-1.2,2.7-2.2c0.7-1,1-2.3,1-3.9c0-1.8-0.5-3.3-1.4-4.4
				c-1-1.1-2.2-1.9-3.7-2.4c-1.5-0.5-3.1-0.8-4.7-0.9c-1.6-0.1-3.6-0.2-5.9-0.2c-1.5-0.1-5.5-0.3-12.1-0.5
				c-10.4-0.4-17-0.6-19.6-0.8c-2.7-0.1-5.1-0.3-7.5-0.4c-2.4-0.1-4.3-0.3-6-0.4c-8.4-0.5-14.4-3.2-18.1-8.3
				c-2.6-3.8-3.9-9.4-3.9-16.9c0-9.2,1.8-16.2,5.3-20.8c3.6-4.6,9.5-7,17.7-7c11,0,38.9,0,83.7,0v19.3c-44.3,0-67.3,0-68.9,0
				c-1.5,0-2.9,0.1-4.1,0.3s-2.4,0.5-3.4,1c-1.1,0.5-1.9,1.2-2.6,2.2c-0.7,1-1,2.3-1,3.9c0,2.9,1,4.8,3.1,5.7s4.9,1.4,8.5,1.4h2.4
				c1.1,0,1.8,0,2.3,0c1.4,0.1,5.3,0.3,11.9,0.5c9.1,0.3,15.4,0.6,18.9,0.7c3.5,0.2,6.5,0.3,8.9,0.4s4.4,0.3,6,0.4
				c8.3,0.5,14.2,3.5,17.5,9.1C3893.9,4302.4,3895.2,4308.2,3895.2,4315.1z"/>
			
				<linearGradient id="SVGID_2_" gradientUnits="userSpaceOnUse" x1="4419.3286" y1="-981.6219" x2="4627.7285" y2="-981.6219" gradientTransform="matrix(0.5038 0 0 -0.5038 1693.6975 3803.3413)">
				<stop  offset="0" style="stop-color:#000000"/>
				<stop  offset="1" style="stop-color:#000000"/>
			</linearGradient>
			<path class="st9" d="M3986.9,4342.5h-27.8v-68.6h-39.2v-20.7h105v20.7H3987L3986.9,4342.5L3986.9,4342.5z"/>
			
				<linearGradient id="SVGID_3_" gradientUnits="userSpaceOnUse" x1="4419.3286" y1="-913.4718" x2="4627.6284" y2="-913.4718" gradientTransform="matrix(0.5038 0 0 -0.5038 1693.6975 3803.3413)">
				<stop  offset="0" style="stop-color:#000000"/>
				<stop  offset="1" style="stop-color:#000000"/>
			</linearGradient>
			<path class="st10" d="M3919.9,4253.2v20.7h39.2l0,0h27.8l0,0h37.9v-20.7H3919.9z"/>
			
				<linearGradient id="SVGID_4_" gradientUnits="userSpaceOnUse" x1="4687.9287" y1="-981.6217" x2="4882.4282" y2="-981.6217" gradientTransform="matrix(0.5038 0 0 -0.5038 1693.6975 3803.3413)">
				<stop  offset="0" style="stop-color:#000000"/>
				<stop  offset="1" style="stop-color:#000000"/>
			</linearGradient>
			<path class="st11" d="M4153.2,4321.7v20.8h-68.5h-27.5h-1.9v-89.3h1.2h28.3h68.5v20.7h-70.1v15h65.8v18.1h-65.8v14.8
				L4153.2,4321.7L4153.2,4321.7z"/>
			
				<linearGradient id="SVGID_5_" gradientUnits="userSpaceOnUse" x1="4940.9282" y1="-981.6219" x2="5189.9292" y2="-981.6219" gradientTransform="matrix(0.5038 0 0 -0.5038 1693.6975 3803.3413)">
				<stop  offset="0" style="stop-color:#000000"/>
				<stop  offset="1" style="stop-color:#000000"/>
			</linearGradient>
			<path class="st12" d="M4220.2,4342.5h-37.5l43.3-44.1l-41.7-45.2h36.2l24.6,27.6l24.5-27.6h36.6l-42.2,45.2l44.1,44.1h-37.4
				l-25.3-26.8L4220.2,4342.5z"/>
		</g>
	</g>
	<g class="st1">
		
			<linearGradient id="SVGID_6_" gradientUnits="userSpaceOnUse" x1="4156.5283" y1="-981.6219" x2="4363.8291" y2="-981.6219" gradientTransform="matrix(0.5038 0 0 -0.5038 1693.6975 3803.3413)">
			<stop  offset="0" style="stop-color:#000000"/>
			<stop  offset="1" style="stop-color:#000000"/>
		</linearGradient>
		<path class="st13" d="M3813,4275.9c-0.7,1-1,2.3-1,3.9c0,2.9,1,4.8,3.1,5.7c1.5,0.7,3.4,1.1,5.7,1.3v1.4h42.5c0.1,0,0.2,0,0.2,0
			l0,0c1.7,0.1,3.2,0.2,4.5,0.2c2.4,0.1,4.4,0.3,6,0.4c5.9,0.3,10.6,2,14,4.9c-1.3,1.3-1.7,3.3-0.2,5.2c0.6,0.8,1.1,1.4,1.5,2
			c-1.7,5.4-0.7,12.6-2,16.9c-0.6,2.1,0.1,3.7,1.4,4.8c-1.6,4.3-2.7,8.3-1.1,13.1c0.1,0.4,0.3,0.7,0.5,1c-4.3,3.8-10.9,5.8-19.8,5.8
			h-80.7v-19.3h68.9c0.5,0,1,0,1.4,0c0.4,0,0.8-0.1,1.2-0.1c0.7-0.1,1.3-0.1,1.8-0.2c1-0.1,1.9-0.3,2.8-0.7c0.3-0.1,0.6-0.2,0.9-0.4
			c1.2-0.5,2.1-1.2,2.7-2.2c0.7-1,1-2.3,1-3.9c0-1.8-0.5-3.3-1.4-4.4c-0.9-1-1.9-1.7-3.2-2.2c-0.2-0.1-0.3-0.1-0.5-0.2
			c-1.3-0.5-2.7-0.7-4.1-0.9v-1.7h-44.4c-0.3,0-0.5,0-0.7-0.1c-0.2,0-0.5,0-0.7-0.1c-2.4-0.1-4.3-0.3-6-0.4
			c-7.6-0.4-13.2-2.7-16.9-6.9c0.2-0.2,0.3-0.4,0.4-0.6c1.1-2.1,1.8-4.4,2.1-6.7c0.5-3.3-1.9-6.8-1.4-9.7c0.6-2.8,2.8-4.1,2.5-7.5
			c-0.4-3.7-3.2-6.3-3.8-9.9c-0.2-0.9-0.5-1.6-1-2.2c0.5-0.9,1-1.8,1.6-2.6c3.6-4.6,9.5-7,17.7-7h83.7v18.4h-71.1v0.9
			c-0.7,0.1-1.3,0.1-1.9,0.2c-1.2,0.2-2.4,0.5-3.4,1C3814.5,4274.2,3813.6,4274.9,3813,4275.9z"/>
		
			<linearGradient id="SVGID_7_" gradientUnits="userSpaceOnUse" x1="4156.3286" y1="-945.9218" x2="4208.4287" y2="-945.9218" gradientTransform="matrix(0.5038 0 0 -0.5038 1693.6975 3803.3413)">
			<stop  offset="0" style="stop-color:#000000"/>
			<stop  offset="1" style="stop-color:#000000"/>
		</linearGradient>
		<path class="st14" d="M3813.7,4253.2v20.9c-3.6,0.2-4.9,3.7-4.1,6.4c-1.3,2.8-0.1,6.9,3.8,7.1c0.1,0,0.2,0,0.3,0v18.9h-26.2v-53.4
			L3813.7,4253.2L3813.7,4253.2z"/>
		
			<linearGradient id="SVGID_8_" gradientUnits="userSpaceOnUse" x1="4191.8286" y1="-945.972" x2="4222.5288" y2="-945.972" gradientTransform="matrix(0.5038 0 0 -0.5038 1693.6975 3803.3413)">
			<stop  offset="0" style="stop-color:#000000"/>
			<stop  offset="1" style="stop-color:#000000"/>
		</linearGradient>
		<rect x="3805.3" y="4272.1" class="st15" width="15.5" height="15.5"/>
		
			<linearGradient id="SVGID_9_" gradientUnits="userSpaceOnUse" x1="4307.3286" y1="-1016.2716" x2="4361.9287" y2="-1016.2716" gradientTransform="matrix(0.5038 0 0 -0.5038 1693.6975 3803.3413)">
			<stop  offset="0" style="stop-color:#000000"/>
			<stop  offset="1" style="stop-color:#000000"/>
		</linearGradient>
		<rect x="3863.5" y="4288.1" class="st16" width="27.5" height="54.4"/>
		
			<linearGradient id="SVGID_10_" gradientUnits="userSpaceOnUse" x1="4295.8286" y1="-1017.2716" x2="4318.7695" y2="-1017.2716" gradientTransform="matrix(0.5038 0 0 -0.5038 1693.6975 3803.3413)">
			<stop  offset="0" style="stop-color:#000000"/>
			<stop  offset="1" style="stop-color:#000000"/>
		</linearGradient>
		<path class="st17" d="M3858.9,4307.8h4.6h5.8v16.1h-5.8h-4.6h-1.2v-0.7c0.4,0,0.8-0.1,1.2-0.1v-14.8V4307.8z"/>
		
			<linearGradient id="SVGID_11_" gradientUnits="userSpaceOnUse" x1="4156.4282" y1="-1033.2216" x2="4298.1284" y2="-1033.2216" gradientTransform="matrix(0.5038 0 0 -0.5038 1693.6975 3803.3413)">
			<stop  offset="0" style="stop-color:#000000"/>
			<stop  offset="1" style="stop-color:#000000"/>
		</linearGradient>
		<path class="st18" d="M3857.7,4323.1c0.4,0,0.8-0.1,1.2-0.1v1.5h-71.4v-1.5h68.9C3856.8,4323.2,3857.3,4323.1,3857.7,4323.1z"/>
		
			<linearGradient id="SVGID_12_" gradientUnits="userSpaceOnUse" x1="4222.5288" y1="-929.8717" x2="4363.6289" y2="-929.8717" gradientTransform="matrix(0.5038 0 0 -0.5038 1693.6975 3803.3413)">
			<stop  offset="0" style="stop-color:#000000"/>
			<stop  offset="1" style="stop-color:#000000"/>
		</linearGradient>
		<rect x="3820.8" y="4269.7" class="st19" width="71.1" height="4.1"/>
	</g>
</g>
<text transform="matrix(1 0 0 1 3797.5469 3182.7051)" class="st20 st21 st22">S</text>
<rect x="3574.7" y="3154.4" class="st23" width="18.9" height="16.5"/>
<rect x="3534.3" y="3121.6" class="st23" width="18.9" height="14.3"/>
<text transform="matrix(1 0 0 1 3825.7617 3225.084)" class="st20 st24 st25">STEX</text>
<path class="st2" d="M3805.4,3027.1l-8.4,8.4c-0.2-0.2-0.3-0.4-0.5-0.6c0.5-0.9,1-1.8,1.6-2.6
	C3799.9,3029.9,3802.4,3028.2,3805.4,3027.1z"/>
<path class="st2" d="M3797,3035.5L3797,3035.5l-1.8,1.8l0,0L3797,3035.5z"/>
<path class="st2" d="M3807.1,3025.4l-1.7,1.7l0,0L3807.1,3025.4L3807.1,3025.4z"/>
<path class="st2" d="M3895.7,3108.9c-2,1.8-4.6,3.2-7.6,4.1l6.8-6.8c0.1,0.5,0.3,1.1,0.5,1.6
	C3895.4,3108.3,3895.6,3108.6,3895.7,3108.9z"/>
<g>
	<g>
		<g>
			<g>
				<path class="st23" d="M2090.3,2244.9c0,126.6-28.2,218.4-84.5,275.2c-56.4,56.8-146.8,85.3-271.5,85.3
					c-145.6,0-499.6,0-1062.1,0v-254.3c583.4,0,885.5,0,906.5,0c21,0,40.1-1,57.6-3c17.4-2,33.7-6.2,48.6-12.7
					c15-6.5,26.9-16.2,35.9-29.2c9-12.9,13.5-29.9,13.5-50.9c0-23.9-6.2-43.1-18.7-57.6c-12.5-14.5-28.7-24.9-48.6-31.4
					c-19.9-6.4-40.7-10.5-62.1-12c-21.5-1.5-47.7-2.3-78.5-2.3c-18.9-1-72.3-3-160-6c-137.6-5-223.9-8.2-258.8-9.7
					c-34.9-1.5-67.8-3-98.7-4.5c-30.9-1.5-57.4-3.2-79.3-5.2c-110.7-6-190-42.4-237.8-109.2c-33.9-49.9-50.9-124.2-50.9-222.9
					c0-121.7,23.4-212.9,70.3-273.7c46.8-60.8,124.6-91.2,233.3-91.2c144.6,0,512.1,0,1102.4,0V1684c-583.4,0-885.5,0-906.5,0
					c-19.9,0-37.9,1-53.9,3c-16,2-30.9,6.2-44.9,12.7c-14,6.5-25.2,16.2-33.7,29.2c-8.5,12.9-12.7,29.9-12.7,50.9
					c0,37.9,13.5,62.8,40.4,74.8c27,12,64.3,17.9,112.2,17.9h31.4c14,0,23.9,0,29.9,0c17.9,1,70.3,3,157.1,6
					c119.6,4,202.7,7,249.1,9c46.4,2,85.5,3.7,117.4,5.2c31.9,1.5,58.3,3.2,79.3,5.2c109.7,6,186.5,45.9,230.4,119.6
					C2074.3,2078.5,2090.3,2154.2,2090.3,2244.9z"/>
				<path class="st26" d="M3299,2605.5h-366.5V1702h-516.1v-272.2h1382.1V1702h-499.6L3299,2605.5L3299,2605.5z"/>
				<path class="st23" d="M2416.3,1429.7v272.3h516.1v0.1h366.4v-0.1h499.7v-272.3H2416.3z"/>
				<path class="st26" d="M5487.4,2331.7v273.7h-902h-362h-25.4V1429.7h15h372.5h902V1702h-922.9v197.5h866.1v237.8h-866.1v194.4
					L5487.4,2331.7L5487.4,2331.7z"/>
				<path class="st26" d="M6369.9,2605.5h-493.6l569.9-580.4l-548.9-595.4h477.2l324.6,363.5l323.1-363.5h481.6l-554.9,595.3
					l580.4,580.4h-492.1l-333.6-353L6369.9,2605.5z"/>
			</g>
		</g>
		<g>
			<path class="st26" d="M2046.9,1429.8v242.9h-936v12.2c-8.6,0.6-16.7,1.2-24.4,2.2c-15.9,2.1-30.9,6.3-44.9,12.7
				c-14,6.5-25.1,16.1-33.7,29.1c-8.4,12.9-12.7,30-12.7,50.9c0,37.8,13.5,62.7,40.4,74.8c19.5,8.8,44.6,14.3,75.2,16.6v18.7h559.7
				c0.9,0,1.8,0.2,2.7,0.2h0.2c21.9,0.9,41.7,1.8,59.2,2.7c32,1.5,58.4,3.2,79.3,5.2c78.1,4.2,139.4,25.8,184.2,64.4
				c-16.7,17.6-22.2,43.1-2.8,69.1c7.1,9.6,13.6,18.2,19.5,26.5c-21.7,70.7-8.9,166.3-26,222.6c-8.2,27.2,1.1,49,17.8,62.8
				c-18.8,49.4-32,96.8-20.6,151l-90.3,90.3c-44.8,13.9-98,20.8-159.6,20.8H672.3v-254.3h906.5c6.3,0,12.5-0.2,18.5-0.3
				c5.1-0.2,10.1-0.4,15-0.7c8.4-0.4,16.3-1.1,24-1.9c13-1.6,25.4-4.2,37.1-8.4c4-1.3,7.8-2.7,11.5-4.4c15-6.5,27-16.2,35.9-29.3
				c9-12.9,13.5-29.9,13.5-50.8c0-24-6.2-43.1-18.7-57.6c-11-12.8-25.1-22.6-42.2-29.2c-2.1-0.7-4.2-1.5-6.4-2.3
				c-17.6-5.6-35.8-9.5-54.7-11.2v-22.2h-585.1c-3.2-0.2-6.2-0.3-9.5-0.6c-2.9-0.2-5.9-0.3-8.8-0.4c-30.9-1.4-57.4-3.2-79.3-5.2
				c-99.9-5.4-174.2-35.7-223-90.7c1.8-2.4,3.4-5,4.8-7.8c14.4-27.4,23.5-57.8,27.7-88.4c6-44-25.5-88.8-17.8-128
				c7.2-36.8,36.6-54.5,32.2-98.2c-4.9-48.7-42-83.7-50.6-130.3c-1.5-8-4-14.8-7.4-20.6L806.4,1452c38.5-14.8,84.6-22.2,138.2-22.2
				L2046.9,1429.8L2046.9,1429.8z"/>
			<path class="st26" d="M1017.7,1429.8v274.8c-47.1,2.7-65,49-53.9,85.1c-17.2,36.6-0.4,90.3,50.3,93.4c1.2,0.2,2.3,0.3,3.6,0.3
				v249.6H671.8v-546.5l23.7-23.7c0,0,0,0.1,0.1,0.1l110.8-110.8c-0.1,0-0.2,0.1-0.2,0.1l22.2-22.2H1017.7L1017.7,1429.8z"/>
			<rect x="907.5" y="1679.6" class="st26" width="203.5" height="203.5"/>
			<path class="st26" d="M2035.7,1890v554.1l-51.3,51.3c-0.1-0.4-0.2-0.7-0.2-1l-90.3,90.3c0.6-0.2,1.1-0.4,1.7-0.6l-21.2,21.3h-201
				V1890H2035.7z"/>
			<path class="st26" d="M1612.3,2148.4h61.1h76.1V2360h-76.1h-61.1h-15v-9.1c5.1-0.2,10.1-0.4,15-0.8v-194.9V2148.4z"/>
			<path class="st26" d="M1597.2,2350.9c5.1-0.2,10.1-0.4,15-0.8v20.1h-940v-19.1h906.5C1585.1,2351.1,1591.2,2351,1597.2,2350.9z"
				/>
			<rect x="1111" y="1648" class="st26" width="936" height="54"/>
		</g>
	</g>
	<path class="st26" d="M1893.9,2584.7c0.6-0.2,1.1-0.4,1.7-0.6l-21.2,21.3h-1.3L1893.9,2584.7z"/>
	<path class="st26" d="M2035.7,2442.9v1.2l-51.3,51.3c-0.1-0.4-0.2-0.7-0.2-1L2035.7,2442.9z"/>
	
		<rect x="1787.2" y="2394.8" transform="matrix(0.7071 -0.7071 0.7071 0.7071 -1190.3097 2068.0566)" class="st26" width="228" height="152.2"/>
</g>
</svg>
